<?xml version="1.0" encoding="UTF-8"?>
<svg version="1.1" xmlns="http://www.w3.org/2000/svg" width="512" height="512">
<path d="M0 0 C1.87446648 -0.00346105 3.74893093 -0.0082286 5.62339115 -0.01418173 C10.74948203 -0.02665992 15.8754045 -0.02053583 21.00149584 -0.01122308 C26.53940989 -0.00441988 32.0772955 -0.01492012 37.61520386 -0.02316284 C48.45418759 -0.03648879 59.29310894 -0.03362749 70.1320951 -0.02492492 C78.94273372 -0.01814431 87.75335488 -0.01723329 96.56399536 -0.02049637 C97.81891881 -0.02095607 99.07384226 -0.02141577 100.36679369 -0.0218894 C102.91630451 -0.02284859 105.46581533 -0.02382123 108.01532614 -0.02480717 C131.23003865 -0.03311408 154.44471466 -0.02450574 177.65941943 -0.00877938 C198.83505759 0.0054566 220.01064161 0.00418268 241.1862793 -0.01016235 C264.99756707 -0.02623908 288.80882501 -0.03253379 312.62012005 -0.02332556 C315.16014798 -0.02236993 317.70017592 -0.02142682 320.24020386 -0.02049637 C321.48988152 -0.02003354 322.73955918 -0.01957072 324.02710587 -0.01909386 C332.82513568 -0.01650575 341.62314626 -0.02087114 350.4211731 -0.02793503 C361.14591541 -0.03635675 371.87059187 -0.03405569 382.59532666 -0.0180928 C388.06515327 -0.0102192 393.53487015 -0.00710302 399.00469589 -0.01704025 C404.01586695 -0.02600641 409.02682698 -0.0210226 414.03797901 -0.0051076 C415.84670265 -0.00176794 417.65544427 -0.00343542 419.46415627 -0.01073496 C433.98133525 -0.0648097 446.20595057 0.4571252 457.11694336 11.04501343 C463.67799907 18.07127847 464.90006657 25.09637663 464.82177734 34.44711304 C464.46243728 44.32029917 460.35938322 50.62332446 453.40209961 57.38095093 C443.46328527 65.93295397 429.11699106 64.81159338 416.80419922 64.76190186 C414.92973274 64.7653629 413.05526829 64.77013046 411.18080807 64.77608359 C406.05471719 64.78856177 400.92879472 64.78243769 395.80270338 64.77312493 C390.26478933 64.76632173 384.72690372 64.77682197 379.18899536 64.7850647 C368.35001162 64.79839065 357.51109028 64.79552934 346.67210412 64.78682677 C337.8614655 64.78004617 329.05084434 64.77913514 320.24020386 64.78239822 C318.35781868 64.78308777 318.35781868 64.78308777 316.43740553 64.78379125 C313.8878947 64.78475045 311.33838389 64.78572309 308.78887308 64.78670903 C285.57416057 64.79501594 262.35948456 64.78640759 239.14477979 64.77068123 C217.96914163 64.75644526 196.79355761 64.75771918 175.61791992 64.77206421 C151.80663215 64.78814094 127.99537421 64.79443565 104.18407917 64.78522742 C101.64405124 64.78427179 99.1040233 64.78332868 96.56399536 64.78239822 C95.3143177 64.7819354 94.06464003 64.78147257 92.77709335 64.78099572 C83.97906354 64.7784076 75.18105296 64.78277299 66.38302612 64.78983688 C55.65828381 64.79825861 44.93360735 64.79595754 34.20887256 64.77999465 C28.73904595 64.77212106 23.26932907 64.76900488 17.79950333 64.77894211 C12.78833227 64.78790826 7.77737224 64.78292445 2.76622021 64.76700945 C0.95749657 64.76366979 -0.85124505 64.76533728 -2.65995705 64.77263682 C-17.17713603 64.82671156 -29.40175135 64.30477665 -40.31274414 53.71688843 C-46.87379986 46.69062338 -48.09586735 39.66552523 -48.01757812 30.31478882 C-47.65823806 20.44160269 -43.555184 14.13857739 -36.59790039 7.38095093 C-26.65908605 -1.17105211 -12.31279184 -0.04969153 0 0 Z " fill="#ffffff" transform="translate(47.597900390625,223.61904907226563)"/>
<path d="M0 0 C0.78395574 -0.00350607 1.56791149 -0.00701215 2.37562346 -0.01062447 C5.00647415 -0.01993938 7.63710351 -0.01501491 10.26796341 -0.01015663 C12.17167442 -0.01389285 14.07538389 -0.01849425 15.97909093 -0.02388728 C21.21377335 -0.03613629 26.44839195 -0.03585457 31.68308544 -0.03349853 C37.32740581 -0.03309084 42.97170558 -0.04412492 48.61601639 -0.05361366 C59.6757165 -0.07023515 70.7353953 -0.07572373 81.79510686 -0.07683842 C90.7842031 -0.07778836 99.7732923 -0.08189598 108.76238632 -0.08823967 C130.09527378 -0.10298832 151.42815466 -0.11528906 172.76104736 -0.11424255 C173.7843971 -0.11419582 173.7843971 -0.11419582 174.82842057 -0.11414814 C178.28624176 -0.11398192 181.74406294 -0.11378384 185.20188412 -0.11357872 C185.88861623 -0.11353883 186.57534835 -0.11349894 187.28289052 -0.11345784 C188.67163053 -0.11337697 190.06037054 -0.11329337 191.44911054 -0.11320706 C213.05340759 -0.11198168 234.65764185 -0.12699236 256.26192093 -0.15435219 C280.5360684 -0.18508051 304.81016179 -0.20225888 329.0843327 -0.20042574 C341.93624934 -0.19976147 354.78809516 -0.20527023 367.63999557 -0.22678185 C378.58233846 -0.24497967 389.52457843 -0.24935244 400.46692988 -0.235763 C406.04991711 -0.2292263 411.63270683 -0.22914167 417.21567535 -0.2464695 C422.32818202 -0.26217395 427.44033416 -0.25936324 432.55283204 -0.24190123 C434.40073382 -0.23882557 436.24866189 -0.24248501 438.09653267 -0.25362138 C450.2903805 -0.32223212 460.37121084 0.55841829 470.25020218 8.41351891 C477.59866442 15.84065847 479.45420654 23.83687013 479.52754593 33.90155602 C479.31783661 42.83940733 475.77189343 50.05878417 469.32442093 56.25726891 C459.03121416 63.91921613 448.65609633 63.82982725 436.32393265 63.76520348 C434.40851684 63.76981586 432.49310456 63.77617104 430.57769966 63.78411245 C425.3291722 63.80078241 420.08093635 63.79256992 414.83240795 63.78016758 C409.16633458 63.77110991 403.50031103 63.78509039 397.83424759 63.79608727 C386.74030603 63.81386936 375.64647275 63.81003384 364.55252695 63.7984367 C355.53586978 63.78940146 346.51924295 63.78817878 337.50258255 63.79253197 C336.21905706 63.7931449 334.93553158 63.79375783 333.61311138 63.79438934 C331.00561602 63.79566824 328.39812067 63.7969651 325.79062533 63.7982797 C302.03967509 63.80935951 278.28879041 63.79787128 254.53785059 63.77690931 C232.8657643 63.75792752 211.19377203 63.75962606 189.52168655 63.77875328 C165.16107101 63.80018158 140.80051945 63.80858597 116.43989372 63.79630423 C113.84201559 63.79503004 111.24413745 63.79377255 108.64625931 63.79253197 C106.72897406 63.79160631 106.72897406 63.79160631 104.77295578 63.79066196 C95.7676167 63.78720894 86.76231099 63.79303639 77.75697708 63.80245018 C66.78178208 63.81367103 55.8067015 63.81062818 44.8315196 63.7893272 C39.23231045 63.77881808 33.63329205 63.77469281 28.03408432 63.78792381 C22.90692146 63.79985609 17.78012591 63.79327106 12.6529963 63.7720136 C10.79983579 63.76755113 8.94664415 63.76980582 7.09350371 63.77951676 C-5.13632543 63.83868046 -15.81244295 63.33605628 -25.09745407 54.40961266 C-31.90445203 46.3953907 -33.99413464 38.28931719 -33.37870407 28.03461266 C-32.38807151 19.77649468 -29.28636779 12.76152757 -22.92557907 7.25726891 C-15.67365236 2.36189288 -8.78519224 -0.04997701 0 0 Z " fill="#ffffff" transform="translate(32.92557907104492,384.74273109436035)"/>
<path d="M0 0 C1.91541581 -0.00461239 3.83082808 -0.01096757 5.74623299 -0.01890898 C10.99476045 -0.03557893 16.2429963 -0.02736644 21.4915247 -0.0149641 C27.15759806 -0.00590644 32.82362162 -0.01988692 38.48968506 -0.03088379 C49.58362662 -0.04866589 60.6774599 -0.04483036 71.7714057 -0.03323323 C80.78806287 -0.02419799 89.8046897 -0.0229753 98.8213501 -0.02732849 C100.10487558 -0.02794142 101.38840107 -0.02855436 102.71082127 -0.02918586 C105.31831663 -0.03046477 107.92581198 -0.03176162 110.53330731 -0.03307623 C134.28425756 -0.04415604 158.03514224 -0.03266781 181.78608206 -0.01170584 C203.45816835 0.00727596 225.13016062 0.00557742 246.80224609 -0.0135498 C271.16286163 -0.0349781 295.5234132 -0.0433825 319.88403893 -0.03110075 C322.48191706 -0.02982656 325.07979519 -0.02856908 327.67767334 -0.02732849 C329.59495859 -0.02640284 329.59495859 -0.02640284 331.55097687 -0.02545848 C340.55631595 -0.02200547 349.56162166 -0.02783292 358.56695557 -0.0372467 C369.54215057 -0.04846755 380.51723114 -0.04542471 391.49241304 -0.02412373 C397.0916222 -0.0136146 402.6906406 -0.00948934 408.28984833 -0.02272034 C413.41701119 -0.03465261 418.54380673 -0.02806759 423.67093635 -0.00681013 C425.52409686 -0.00234766 427.37728849 -0.00460234 429.23042893 -0.01431328 C441.46025808 -0.07347699 452.1363756 0.4291472 461.42138672 9.35559082 C468.22807101 17.36944348 470.31377057 25.47307151 469.70654297 35.72668457 C468.55292966 45.27110923 464.57630232 52.23339179 457.06201172 58.19543457 C447.15012413 64.617691 436.00140087 63.93390055 424.64414978 63.8888855 C422.74452256 63.89234484 420.84489735 63.89711127 418.94527632 63.90306723 C413.74046646 63.91556866 408.53582204 63.9094107 403.33101165 63.90010858 C397.71200124 63.893315 392.09301907 63.90380083 386.47401428 63.91204834 C375.47266659 63.92538427 364.47138033 63.92250861 353.47003024 63.91381042 C344.52916932 63.90703409 335.5883256 63.90611693 326.64746284 63.90938187 C325.37475008 63.90984157 324.10203731 63.91030126 322.7907575 63.91077489 C320.20524441 63.91173407 317.61973133 63.91270671 315.03421826 63.91369267 C291.48436854 63.92200226 267.93455998 63.9133866 244.38471718 63.89766488 C222.89391136 63.88342685 201.40315887 63.88470392 179.91235352 63.89904785 C155.75648006 63.91511676 131.60064452 63.9214238 107.4447642 63.91221106 C104.86909108 63.91125541 102.29341796 63.9103123 99.71774483 63.90938187 C98.45047039 63.90891904 97.18319595 63.90845621 95.87751926 63.90797936 C86.94685693 63.90538903 78.01621352 63.90976138 69.08555412 63.91682053 C58.20294136 63.92523352 47.32039351 63.92295948 36.43778818 63.90697829 C30.88531177 63.89909319 25.3329436 63.89600818 19.78046799 63.90592575 C14.6972085 63.91486794 9.61415757 63.90994748 4.530917 63.89399309 C2.69257743 63.89064332 0.85422023 63.89234376 -0.98410798 63.89962046 C-13.74988336 63.94627348 -24.64390242 63.2847065 -34.75048828 54.50793457 C-42.06182987 45.79056576 -43.8616471 36.72552754 -43.03173828 25.51916504 C-42.03948143 18.42349495 -38.08129054 12.39252699 -33.00048828 7.50793457 C-22.70728151 -0.15401265 -12.33216368 -0.06462377 0 0 Z " fill="#ffffff" transform="translate(42.75048828125,63.4920654296875)"/>
</svg>
