<?xml version="1.0" encoding="UTF-8"?>
<svg version="1.1" xmlns="http://www.w3.org/2000/svg" width="512" height="512">
<path d="M0 0 C12.83883949 4.89243003 21.88259591 15.33450882 31.28608704 24.92982864 C33.70990777 27.40175007 36.14427692 29.86284005 38.58166504 32.32138062 C45.50299309 39.30646592 52.40550002 46.31001384 59.30053711 53.32104492 C63.53651605 57.62680619 67.7848376 61.92007952 72.04060364 66.20627975 C73.64968409 67.83203881 75.25394456 69.46258418 76.85307312 71.09813309 C91.79586092 86.91866299 91.79586092 86.91866299 112.1027832 92.67016602 C125.67971433 92.80010397 134.54932438 88.37514807 144.266922 78.89393616 C145.54856019 77.60600892 146.82473559 76.31262885 148.09619141 75.01464844 C148.80145462 74.30325211 149.50671783 73.59185577 150.23335266 72.85890198 C151.75233587 71.32569948 153.26905399 69.79025016 154.78370094 68.25276375 C157.18876894 65.81264263 159.60109015 63.37990912 162.01554871 60.94908142 C168.87530464 54.04066219 175.72371734 47.12108131 182.56298828 40.19238281 C186.75868184 35.94285478 190.96428653 31.70334162 195.17597008 27.46966362 C196.77004693 25.86324673 198.36032953 24.25305478 199.94657326 22.63890266 C217.81418057 4.45973522 232.46441457 -3.39829432 258.35525513 -3.69429016 C274.11373255 -3.35298332 282.78655737 3.51967242 293.43658447 14.4928894 C296.56589266 17.80482721 299.58836864 21.20358621 302.59912109 24.62310791 C305.69072727 28.08598086 308.90407499 31.43198516 312.10473633 34.79370117 C332.35134751 56.23203643 350.39797561 76.88598097 350.04003906 107.94067383 C349.45866067 124.06113377 344.23670823 139.23237229 333.54760742 151.48583984 C333.06857153 152.04267047 332.58953564 152.59950109 332.09598351 153.17320538 C330.59379119 154.91389617 329.08275831 156.64654154 327.56958008 158.37768555 C327.10144142 158.91636387 326.63330276 159.45504219 326.15097809 160.0100441 C320.06818651 167.00147045 313.83171449 173.83749743 307.46100807 180.56757069 C304.52635582 183.67235244 301.6372641 186.80157227 298.82788086 190.02050781 C278.92278551 212.74348564 278.92278551 212.74348564 263.98657227 214.14868164 C246.76883586 215.14998561 227.67968245 213.43705342 214.15963745 201.81171417 C208.5041297 196.71116866 203.18156919 191.26273841 197.85307312 185.82554245 C195.42925239 183.35362102 192.99488324 180.89253105 190.55749512 178.43399048 C183.63616706 171.44890517 176.73366014 164.44535725 169.83862305 157.43432617 C165.60264411 153.1285649 161.35432255 148.83529157 157.09855652 144.54909134 C155.48947607 142.92333229 153.8852156 141.29278692 152.28608704 139.65723801 C140.69417675 127.80233316 131.05937662 118.06188297 113.56958008 117.37768555 C97.15263936 118.08953122 87.2522168 129.02882067 76.48268127 140.05819511 C73.9952863 142.60535733 71.49250405 145.1364923 68.98547363 147.6643219 C63.6658998 153.03395041 58.36711658 158.42382887 53.06958008 163.81518555 C46.92501414 170.06411393 40.77194405 176.30437235 34.60292053 182.52916145 C32.15100028 185.01050701 29.71201139 187.5040701 27.27355957 189.99864197 C10.13977205 207.40609411 -4.98844556 214.15932269 -29.62712097 214.44966125 C-45.14569609 214.10346484 -53.72815333 207.04461905 -64.20236206 196.26248169 C-67.33823266 192.94889905 -70.37046049 189.55052707 -73.39129639 186.13226318 C-76.49159095 182.67121971 -79.71039527 179.32411088 -82.91674805 175.96166992 C-103.19565054 154.52526538 -121.25914125 133.89765682 -120.90087891 102.81469727 C-119.80711117 72.48670549 -99.46172696 52.37110041 -79.75562 31.56976032 C-76.68809813 28.32717078 -73.66694223 25.059607 -70.72851562 21.69921875 C-50.33020194 -1.54488858 -30.54979172 -8.80795774 0 0 Z " fill="#fff" transform="translate(141.430419921875,150.622314453125)"/>
<path d="M0 0 C10.51356491 8.85188048 20.13429536 18.57271028 29.8261261 28.30581665 C31.69048099 30.17136577 33.55520804 32.03654304 35.42028809 33.90136719 C39.30060783 37.78261581 43.17707752 41.66767476 47.05097961 45.55532837 C51.53136461 50.05155861 56.0170767 54.54241879 60.50575525 59.03036845 C64.84111227 63.36511662 69.17355964 67.70275822 73.50450706 72.04191208 C75.34322057 73.88381473 77.18254653 75.72510619 79.02248573 77.56578445 C81.57650993 80.12196189 84.12722408 82.68139405 86.67695618 85.24185181 C87.44199463 86.00643707 88.20703308 86.77102234 88.99525452 87.55877686 C90.02725731 88.59717712 90.02725731 88.59717712 91.08010864 89.65655518 C91.68266889 90.26079126 92.28522913 90.86502735 92.90604877 91.48757362 C94.18159485 92.89175415 94.18159485 92.89175415 94.18159485 93.89175415 C93.53311584 93.95121216 92.88463684 94.01067017 92.21650696 94.07192993 C63.41814125 96.84085646 48.16356483 106.36417736 28.20653152 126.64132309 C25.76645151 129.12015918 23.31671437 131.5890918 20.86442566 134.05584717 C15.66992545 139.28437164 10.48742522 144.5246889 5.30659485 149.76675415 C-0.72234474 155.86663717 -6.75617944 161.96151124 -12.80275345 168.04391861 C-15.2119025 170.47246018 -17.61181856 172.90987659 -20.01148987 175.34777832 C-21.48818711 176.83537238 -22.96530675 178.32254731 -24.44291687 179.80923462 C-25.10379807 180.48561478 -25.76467926 181.16199493 -26.44558716 181.85887146 C-31.20185549 186.61675706 -35.71749539 190.31784668 -42.75590515 190.32925415 C-43.54867859 190.34859009 -44.34145203 190.36792603 -45.1582489 190.3878479 C-52.46869178 189.02452008 -57.3902332 183.72099354 -62.36747742 178.60391235 C-63.08728287 177.87651352 -63.80708832 177.14911469 -64.54870605 176.39967346 C-66.10427606 174.82605591 -67.65642678 173.24905239 -69.20549202 171.66903114 C-71.66776387 169.15894301 -74.1403426 166.65943762 -76.61599731 164.16255188 C-83.65095698 157.06363582 -90.6675994 149.94674682 -97.67607117 142.82168579 C-101.97217982 138.45557178 -106.28080751 134.10212202 -110.59686089 129.75572777 C-112.22860119 128.10734881 -113.85552672 126.45418769 -115.47725105 124.79595375 C-131.2265671 108.69384098 -145.44978153 97.54196298 -168.50590515 95.14175415 C-169.60096375 95.01671509 -170.69602234 94.89167603 -171.82426453 94.7628479 C-174.48788144 94.46042851 -177.15220258 94.1702791 -179.81840515 93.89175415 C-175.37051391 88.57146206 -170.68281865 83.60255731 -165.7844696 78.69668579 C-165.00146988 77.90872116 -164.21847015 77.12075653 -163.41174316 76.30891418 C-160.83782626 73.720473 -158.26010395 71.13586795 -155.6816864 68.5519104 C-154.79624838 67.663645 -153.91081036 66.7753796 -152.99854088 65.86019707 C-148.79489968 61.64313922 -144.58950867 57.42784045 -140.38109332 53.21554762 C-135.55333698 48.38331621 -130.73218251 43.54462481 -125.91670448 38.70015818 C-121.7201574 34.47924346 -117.51523535 30.26673838 -113.30734825 26.057127 C-111.53040607 24.27717401 -109.75594606 22.49473921 -107.98410988 20.70970345 C-78.78715051 -8.68920564 -38.0437394 -28.45778069 0 0 Z " fill="#fff" transform="translate(298.8184051513672,34.108245849609375)"/>
<path d="M0 0 C0.79277344 -0.01933594 1.58554687 -0.03867187 2.40234375 -0.05859375 C9.71278663 1.30473407 14.63432805 6.60826061 19.61157227 11.7253418 C20.33137772 12.45274063 21.05118317 13.18013947 21.7928009 13.92958069 C23.34837091 15.50319824 24.90052163 17.08020176 26.44958687 18.66022301 C28.91185872 21.17031114 31.38443745 23.66981653 33.86009216 26.16670227 C40.89505183 33.26561833 47.91169425 40.38250733 54.92016602 47.50756836 C59.21627467 51.87368237 63.52490236 56.22713213 67.84095573 60.57352638 C69.47269604 62.22190534 71.09962157 63.87506646 72.7213459 65.5333004 C88.47066195 81.63541317 102.69387638 92.78729117 125.75 95.1875 C126.84505859 95.31253906 127.94011719 95.43757813 129.06835938 95.56640625 C131.73197629 95.86882564 134.39629743 96.15897505 137.0625 96.4375 C132.61460876 101.75779209 127.9269135 106.72669684 123.02856445 111.63256836 C122.24556473 112.42053299 121.462565 113.20849762 120.65583801 114.02033997 C118.08192111 116.60878115 115.5041988 119.1933862 112.92578125 121.77734375 C111.59762422 123.10974185 111.59762422 123.10974185 110.24263573 124.46905708 C106.03899453 128.68611493 101.83360352 132.90141371 97.62518817 137.11370653 C92.79743183 141.94593794 87.97627736 146.78462934 83.16079932 151.62909597 C78.96425225 155.85001069 74.7593302 160.06251577 70.5514431 164.27212715 C68.77450092 166.05208014 67.00004091 167.83451494 65.22820473 169.6195507 C46.4179797 188.55988242 27.95544712 203.64212535 0.0625 203.9375 C-32.07029016 203.5671373 -51.27044839 183.42578227 -72.58203125 162.0234375 C-74.44638614 160.15788838 -76.31111319 158.29271111 -78.17619324 156.42788696 C-82.05651298 152.54663834 -85.93298267 148.66157939 -89.80688477 144.77392578 C-94.28726976 140.27769554 -98.77298185 135.78683537 -103.2616604 131.2988857 C-107.59701742 126.96413753 -111.92946479 122.62649593 -116.26041222 118.28734207 C-118.09912572 116.44543942 -119.93845168 114.60414796 -121.77839088 112.7634697 C-124.33241508 110.20729226 -126.88312923 107.6478601 -129.43286133 105.08740234 C-130.19789978 104.32281708 -130.96293823 103.55823181 -131.75115967 102.77047729 C-132.43916153 102.07821045 -133.12716339 101.3859436 -133.83601379 100.67269897 C-134.43857404 100.06846289 -135.04113428 99.4642268 -135.66195393 98.84168053 C-136.9375 97.4375 -136.9375 97.4375 -136.9375 96.4375 C-136.289021 96.37804199 -135.64054199 96.31858398 -134.97241211 96.25732422 C-106.1740464 93.48839769 -90.91946998 83.96507679 -70.96243668 63.68793106 C-68.52235666 61.20909497 -66.07261952 58.74016235 -63.62033081 56.27340698 C-58.4258306 51.04488251 -53.24333037 45.80456525 -48.0625 40.5625 C-42.03356041 34.46261698 -35.99972571 28.36774291 -29.9531517 22.28533554 C-27.54400265 19.85679397 -25.14408659 17.41937756 -22.74441528 14.98147583 C-21.26771804 13.49388177 -19.7905984 12.00670684 -18.31298828 10.52001953 C-17.65210709 9.84363937 -16.99122589 9.16725922 -16.31031799 8.47038269 C-11.55404966 3.71249709 -7.03840977 0.01140747 0 0 Z " fill="#fff" transform="translate(255.9375,287.5625)"/>
</svg>
